<svg xmlns="http://www.w3.org/2000/svg" xmlns:xlink="http://www.w3.org/1999/xlink" width="500" zoomAndPan="magnify" viewBox="0 0 375 374.999991" height="500" preserveAspectRatio="xMidYMid meet" version="1.0"><defs><g/><clipPath id="id1"><path d="M 56.113281 170.535156 L 318.613281 170.535156 L 318.613281 204.285156 L 56.113281 204.285156 Z M 56.113281 170.535156 " clip-rule="nonzero"/></clipPath></defs><g fill="#1f2122" fill-opacity="1"><g transform="translate(79.843784, 288.100856)"><g><path d="M 106.78125 -205.03125 C 117.945312 -205.03125 127.125 -203.46875 134.3125 -200.34375 C 141.507812 -197.226562 149.367188 -192.640625 157.890625 -186.578125 C 160.359375 -184.679688 162.253906 -183.734375 163.578125 -183.734375 C 167.171875 -183.734375 169.535156 -189.507812 170.671875 -201.0625 L 177.203125 -201.0625 C 176.453125 -188.757812 176.078125 -166.988281 176.078125 -135.75 L 169.53125 -135.75 C 167.832031 -145.78125 166.035156 -154.0625 164.140625 -160.59375 C 162.242188 -167.125 159.3125 -172.851562 155.34375 -177.78125 C 149.851562 -184.59375 142.703125 -189.984375 133.890625 -193.953125 C 125.085938 -197.929688 115.859375 -199.921875 106.203125 -199.921875 C 93.710938 -199.921875 82.734375 -195.847656 73.265625 -187.703125 C 63.796875 -179.566406 56.503906 -167.972656 51.390625 -152.921875 C 46.285156 -137.867188 43.734375 -120.3125 43.734375 -100.25 C 43.734375 -66.164062 49.175781 -41.21875 60.0625 -25.40625 C 70.945312 -9.601562 88.035156 -1.703125 111.328125 -1.703125 C 122.679688 -1.703125 132.523438 -4.632812 140.859375 -10.5 C 144.265625 -12.78125 146.488281 -15.007812 147.53125 -17.1875 C 148.570312 -19.363281 149.09375 -22.34375 149.09375 -26.125 L 149.09375 -53.390625 C 149.09375 -61.335938 148.332031 -67.109375 146.8125 -70.703125 C 145.300781 -74.304688 142.648438 -76.769531 138.859375 -78.09375 C 135.078125 -79.414062 128.925781 -80.269531 120.40625 -80.65625 L 120.40625 -86.328125 C 130.25 -85.765625 143.597656 -85.484375 160.453125 -85.484375 C 173.328125 -85.484375 183.171875 -85.765625 189.984375 -86.328125 L 189.984375 -80.65625 C 185.628906 -80.269531 182.457031 -79.507812 180.46875 -78.375 C 178.476562 -77.238281 177.148438 -75.0625 176.484375 -71.84375 C 175.828125 -68.625 175.5 -63.421875 175.5 -56.234375 L 175.5 0 L 169.828125 0 C 169.628906 -3.789062 168.867188 -7.4375 167.546875 -10.9375 C 166.222656 -14.4375 164.425781 -16.1875 162.15625 -16.1875 C 161.019531 -16.1875 159.882812 -15.898438 158.75 -15.328125 C 157.613281 -14.765625 155.625 -13.441406 152.78125 -11.359375 C 146.15625 -6.242188 139.289062 -2.410156 132.1875 0.140625 C 125.09375 2.691406 117.191406 3.96875 108.484375 3.96875 C 88.984375 3.96875 72.273438 -0.0507812 58.359375 -8.09375 C 44.441406 -16.132812 33.789062 -27.726562 26.40625 -42.875 C 19.019531 -58.019531 15.328125 -76.101562 15.328125 -97.125 C 15.328125 -118.707031 19.253906 -137.6875 27.109375 -154.0625 C 34.972656 -170.4375 45.816406 -183.023438 59.640625 -191.828125 C 73.460938 -200.628906 89.175781 -205.03125 106.78125 -205.03125 Z M 106.78125 -205.03125 "/></g></g></g><g clip-path="url(#id1)"><path fill="#ffffff" d="M 56.140625 170.535156 L 318.589844 170.535156 L 318.589844 204.285156 L 56.140625 204.285156 L 56.140625 170.535156 " fill-opacity="1" fill-rule="nonzero"/></g><g fill="#1f2122" fill-opacity="1"><g transform="translate(111.527722, 192.113279)"><g><path d="M 0.5 0 L 0.5 -0.125 L 0.671875 -0.125 C 1.378906 -0.125 1.734375 -0.4375 1.734375 -1.0625 L 1.734375 -8.28125 C 1.734375 -8.875 1.378906 -9.171875 0.671875 -9.171875 L 0.5 -9.171875 L 0.5 -9.296875 L 7.0625 -9.296875 L 7.140625 -7.03125 L 7.015625 -7.03125 L 6.984375 -7.453125 C 6.953125 -8.109375 6.800781 -8.554688 6.53125 -8.796875 C 6.257812 -9.046875 5.796875 -9.171875 5.140625 -9.171875 L 3.046875 -9.171875 L 3.046875 -4.640625 L 6.3125 -4.640625 L 6.3125 -4.515625 L 3.046875 -4.515625 L 3.046875 -1.0625 C 3.046875 -0.4375 3.40625 -0.125 4.125 -0.125 L 4.28125 -0.125 L 4.28125 0 Z M 0.5 0 "/></g></g></g><g fill="#1f2122" fill-opacity="1"><g transform="translate(124.105242, 192.113279)"><g><path d="M 0 0 L 0 -0.125 L 0.375 -0.125 C 0.65625 -0.125 0.875 -0.195312 1.03125 -0.34375 C 1.195312 -0.5 1.34375 -0.765625 1.46875 -1.140625 L 4.3125 -9.296875 L 4.984375 -9.296875 L 8.25 -0.828125 C 8.34375 -0.566406 8.445312 -0.382812 8.5625 -0.28125 C 8.675781 -0.175781 8.828125 -0.125 9.015625 -0.125 L 9.1875 -0.125 L 9.1875 0 L 5.609375 0 L 5.609375 -0.125 L 5.90625 -0.125 C 6.226562 -0.125 6.460938 -0.160156 6.609375 -0.234375 C 6.765625 -0.316406 6.84375 -0.460938 6.84375 -0.671875 C 6.84375 -0.734375 6.832031 -0.8125 6.8125 -0.90625 C 6.800781 -1.007812 6.769531 -1.117188 6.71875 -1.234375 L 5.921875 -3.375 L 2.390625 -3.375 L 1.6875 -1.328125 C 1.601562 -1.097656 1.5625 -0.910156 1.5625 -0.765625 C 1.5625 -0.535156 1.664062 -0.367188 1.875 -0.265625 C 2.082031 -0.171875 2.414062 -0.125 2.875 -0.125 L 3.171875 -0.125 L 3.171875 0 Z M 2.4375 -3.5 L 5.875 -3.5 L 4.921875 -6.046875 C 4.585938 -6.921875 4.320312 -7.703125 4.125 -8.390625 C 4.03125 -8.128906 3.953125 -7.898438 3.890625 -7.703125 C 3.828125 -7.503906 3.757812 -7.289062 3.6875 -7.0625 C 3.613281 -6.84375 3.519531 -6.578125 3.40625 -6.265625 Z M 2.4375 -3.5 "/></g></g></g><g fill="#1f2122" fill-opacity="1"><g transform="translate(138.181353, 192.113279)"><g><path d="M 3.359375 0.125 C 2.503906 0.125 1.832031 -0.046875 1.34375 -0.390625 C 0.863281 -0.734375 0.625 -1.160156 0.625 -1.671875 C 0.625 -2.273438 0.9375 -2.578125 1.5625 -2.578125 C 1.570312 -1.722656 1.726562 -1.078125 2.03125 -0.640625 C 2.34375 -0.210938 2.816406 0 3.453125 0 C 4.003906 0 4.453125 -0.160156 4.796875 -0.484375 C 5.140625 -0.804688 5.3125 -1.285156 5.3125 -1.921875 C 5.3125 -2.316406 5.238281 -2.632812 5.09375 -2.875 C 4.957031 -3.125 4.726562 -3.34375 4.40625 -3.53125 C 4.09375 -3.726562 3.679688 -3.945312 3.171875 -4.1875 C 2.898438 -4.3125 2.625 -4.445312 2.34375 -4.59375 C 2.0625 -4.75 1.800781 -4.929688 1.5625 -5.140625 C 1.320312 -5.359375 1.128906 -5.617188 0.984375 -5.921875 C 0.835938 -6.234375 0.765625 -6.601562 0.765625 -7.03125 C 0.765625 -7.8125 1.015625 -8.40625 1.515625 -8.8125 C 2.015625 -9.226562 2.679688 -9.4375 3.515625 -9.4375 C 4.023438 -9.4375 4.46875 -9.363281 4.84375 -9.21875 C 5.226562 -9.082031 5.523438 -8.898438 5.734375 -8.671875 C 5.953125 -8.453125 6.0625 -8.207031 6.0625 -7.9375 C 6.0625 -7.6875 5.960938 -7.488281 5.765625 -7.34375 C 5.578125 -7.195312 5.332031 -7.125 5.03125 -7.125 C 5.03125 -7.84375 4.910156 -8.382812 4.671875 -8.75 C 4.441406 -9.113281 4.050781 -9.296875 3.5 -9.296875 C 3 -9.296875 2.597656 -9.144531 2.296875 -8.84375 C 1.992188 -8.539062 1.84375 -8.09375 1.84375 -7.5 C 1.84375 -7.082031 1.921875 -6.738281 2.078125 -6.46875 C 2.234375 -6.207031 2.46875 -5.984375 2.78125 -5.796875 C 3.09375 -5.617188 3.492188 -5.414062 3.984375 -5.1875 C 4.421875 -4.988281 4.820312 -4.78125 5.1875 -4.5625 C 5.5625 -4.34375 5.859375 -4.066406 6.078125 -3.734375 C 6.304688 -3.398438 6.421875 -2.96875 6.421875 -2.4375 C 6.421875 -1.644531 6.15625 -1.019531 5.625 -0.5625 C 5.09375 -0.101562 4.335938 0.125 3.359375 0.125 Z M 3.359375 0.125 "/></g></g></g><g fill="#1f2122" fill-opacity="1"><g transform="translate(150.159431, 192.113279)"><g><path d="M 0.515625 0 L 0.515625 -0.125 L 0.671875 -0.125 C 1.390625 -0.125 1.75 -0.4375 1.75 -1.0625 L 1.75 -8.28125 C 1.75 -8.875 1.390625 -9.171875 0.671875 -9.171875 L 0.515625 -9.171875 L 0.515625 -9.296875 L 4.296875 -9.296875 L 4.296875 -9.171875 L 4.125 -9.171875 C 3.414062 -9.171875 3.0625 -8.859375 3.0625 -8.234375 L 3.0625 -4.921875 L 7.28125 -4.921875 L 7.28125 -8.234375 C 7.28125 -8.859375 6.925781 -9.171875 6.21875 -9.171875 L 6.046875 -9.171875 L 6.046875 -9.296875 L 9.84375 -9.296875 L 9.84375 -9.171875 L 9.671875 -9.171875 C 8.953125 -9.171875 8.59375 -8.875 8.59375 -8.28125 L 8.59375 -1.0625 C 8.59375 -0.4375 8.953125 -0.125 9.671875 -0.125 L 9.84375 -0.125 L 9.84375 0 L 6.046875 0 L 6.046875 -0.125 L 6.21875 -0.125 C 6.925781 -0.125 7.28125 -0.4375 7.28125 -1.0625 L 7.28125 -4.796875 L 3.0625 -4.796875 L 3.0625 -1.0625 C 3.0625 -0.4375 3.414062 -0.125 4.125 -0.125 L 4.296875 -0.125 L 4.296875 0 Z M 0.515625 0 "/></g></g></g><g fill="#1f2122" fill-opacity="1"><g transform="translate(165.382287, 192.113279)"><g><path d="M 0.5 0 L 0.5 -0.125 L 0.671875 -0.125 C 1.378906 -0.125 1.734375 -0.4375 1.734375 -1.0625 L 1.734375 -8.28125 C 1.734375 -8.875 1.378906 -9.171875 0.671875 -9.171875 L 0.5 -9.171875 L 0.5 -9.296875 L 4.28125 -9.296875 L 4.28125 -9.171875 L 4.125 -9.171875 C 3.40625 -9.171875 3.046875 -8.859375 3.046875 -8.234375 L 3.046875 -1.0625 C 3.046875 -0.4375 3.40625 -0.125 4.125 -0.125 L 4.28125 -0.125 L 4.28125 0 Z M 0.5 0 "/></g></g></g><g fill="#1f2122" fill-opacity="1"><g transform="translate(175.053831, 192.113279)"><g><path d="M 4.828125 0.125 C 3.910156 0.125 3.144531 -0.0703125 2.53125 -0.46875 C 1.925781 -0.863281 1.472656 -1.421875 1.171875 -2.140625 C 0.878906 -2.867188 0.734375 -3.710938 0.734375 -4.671875 C 0.734375 -5.640625 0.878906 -6.476562 1.171875 -7.1875 C 1.472656 -7.90625 1.929688 -8.460938 2.546875 -8.859375 C 3.160156 -9.253906 3.925781 -9.453125 4.84375 -9.453125 C 5.71875 -9.453125 6.457031 -9.253906 7.0625 -8.859375 C 7.664062 -8.460938 8.125 -7.90625 8.4375 -7.1875 C 8.757812 -6.46875 8.921875 -5.628906 8.921875 -4.671875 C 8.921875 -3.703125 8.757812 -2.859375 8.4375 -2.140625 C 8.125 -1.421875 7.664062 -0.863281 7.0625 -0.46875 C 6.457031 -0.0703125 5.710938 0.125 4.828125 0.125 Z M 4.828125 0 C 5.765625 0 6.441406 -0.367188 6.859375 -1.109375 C 7.273438 -1.847656 7.484375 -3.035156 7.484375 -4.671875 C 7.484375 -6.296875 7.273438 -7.472656 6.859375 -8.203125 C 6.441406 -8.941406 5.769531 -9.3125 4.84375 -9.3125 C 3.914062 -9.3125 3.238281 -8.941406 2.8125 -8.203125 C 2.382812 -7.472656 2.171875 -6.296875 2.171875 -4.671875 C 2.171875 -3.035156 2.378906 -1.847656 2.796875 -1.109375 C 3.222656 -0.367188 3.898438 0 4.828125 0 Z M 4.828125 0 "/></g></g></g><g fill="#1f2122" fill-opacity="1"><g transform="translate(189.612094, 192.113279)"><g><path d="M 0.5 0 L 0.5 -0.125 L 0.875 -0.125 C 1.582031 -0.125 1.9375 -0.4375 1.9375 -1.0625 L 1.9375 -8.28125 C 1.9375 -8.875 1.582031 -9.171875 0.875 -9.171875 L 0.5 -9.171875 L 0.5 -9.296875 L 3.03125 -9.296875 L 8 -1.859375 L 8 -8.234375 C 8 -8.859375 7.644531 -9.171875 6.9375 -9.171875 L 6.5625 -9.171875 L 6.5625 -9.296875 L 9.578125 -9.296875 L 9.578125 -9.171875 L 9.203125 -9.171875 C 8.484375 -9.171875 8.125 -8.859375 8.125 -8.234375 L 8.125 0 L 7.734375 0 L 2.078125 -8.5 L 2.078125 -1.0625 C 2.078125 -0.4375 2.429688 -0.125 3.140625 -0.125 L 3.5 -0.125 L 3.5 0 Z M 0.5 0 "/></g></g></g><g fill="#1f2122" fill-opacity="1"><g transform="translate(204.444019, 192.113279)"><g/></g></g><g fill="#1f2122" fill-opacity="1"><g transform="translate(212.265134, 192.113279)"><g><path d="M 5.21875 0.125 C 4.21875 0.125 3.382812 -0.0703125 2.71875 -0.46875 C 2.050781 -0.863281 1.554688 -1.421875 1.234375 -2.140625 C 0.910156 -2.859375 0.75 -3.703125 0.75 -4.671875 C 0.75 -5.609375 0.90625 -6.429688 1.21875 -7.140625 C 1.539062 -7.859375 2.03125 -8.421875 2.6875 -8.828125 C 3.34375 -9.234375 4.171875 -9.4375 5.171875 -9.4375 C 6.140625 -9.4375 6.882812 -9.300781 7.40625 -9.03125 C 7.925781 -8.769531 8.1875 -8.429688 8.1875 -8.015625 C 8.1875 -7.722656 8.09375 -7.5 7.90625 -7.34375 C 7.71875 -7.1875 7.40625 -7.09375 6.96875 -7.0625 C 6.96875 -7.875 6.828125 -8.445312 6.546875 -8.78125 C 6.265625 -9.125 5.789062 -9.296875 5.125 -9.296875 C 4.414062 -9.296875 3.847656 -9.140625 3.421875 -8.828125 C 2.992188 -8.523438 2.679688 -8.03125 2.484375 -7.34375 C 2.285156 -6.664062 2.1875 -5.773438 2.1875 -4.671875 C 2.1875 -3.546875 2.296875 -2.640625 2.515625 -1.953125 C 2.734375 -1.273438 3.082031 -0.78125 3.5625 -0.46875 C 4.039062 -0.15625 4.664062 0 5.4375 0 C 5.6875 0 5.925781 -0.0195312 6.15625 -0.0625 C 6.394531 -0.101562 6.609375 -0.148438 6.796875 -0.203125 L 6.796875 -3.28125 C 6.796875 -3.875 6.4375 -4.171875 5.71875 -4.171875 L 5.671875 -4.171875 L 5.671875 -4.296875 L 9.0625 -4.296875 L 9.0625 -4.171875 L 9 -4.171875 C 8.664062 -4.171875 8.429688 -4.09375 8.296875 -3.9375 C 8.171875 -3.78125 8.109375 -3.546875 8.109375 -3.234375 L 8.109375 -0.46875 C 7.671875 -0.269531 7.222656 -0.117188 6.765625 -0.015625 C 6.304688 0.078125 5.789062 0.125 5.21875 0.125 Z M 5.21875 0.125 "/></g></g></g><g fill="#1f2122" fill-opacity="1"><g transform="translate(226.458531, 192.113279)"><g><path d="M 4.71875 0.125 C 3.6875 0.125 2.878906 -0.0976562 2.296875 -0.546875 C 1.722656 -0.992188 1.4375 -1.75 1.4375 -2.8125 L 1.4375 -8.28125 C 1.4375 -8.875 1.078125 -9.171875 0.359375 -9.171875 L 0.203125 -9.171875 L 0.203125 -9.296875 L 3.984375 -9.296875 L 3.984375 -9.171875 L 3.8125 -9.171875 C 3.101562 -9.171875 2.75 -8.863281 2.75 -8.25 L 2.75 -2.734375 C 2.75 -2.035156 2.84375 -1.488281 3.03125 -1.09375 C 3.21875 -0.707031 3.472656 -0.4375 3.796875 -0.28125 C 4.128906 -0.132812 4.503906 -0.0625 4.921875 -0.0625 C 5.804688 -0.0625 6.503906 -0.289062 7.015625 -0.75 C 7.523438 -1.21875 7.78125 -1.863281 7.78125 -2.6875 L 7.78125 -8.28125 C 7.78125 -8.875 7.425781 -9.171875 6.71875 -9.171875 L 6.546875 -9.171875 L 6.546875 -9.296875 L 9.140625 -9.296875 L 9.140625 -9.171875 L 8.984375 -9.171875 C 8.265625 -9.171875 7.90625 -8.859375 7.90625 -8.234375 L 7.90625 -2.65625 C 7.90625 -1.789062 7.628906 -1.109375 7.078125 -0.609375 C 6.535156 -0.117188 5.75 0.125 4.71875 0.125 Z M 4.71875 0.125 "/></g></g></g><g fill="#1f2122" fill-opacity="1"><g transform="translate(240.69102, 192.113279)"><g><path d="M 0.5 0 L 0.5 -0.125 L 0.671875 -0.125 C 1.378906 -0.125 1.734375 -0.4375 1.734375 -1.0625 L 1.734375 -8.28125 C 1.734375 -8.875 1.378906 -9.171875 0.671875 -9.171875 L 0.5 -9.171875 L 0.5 -9.296875 L 4 -9.296875 C 5.125 -9.296875 5.960938 -9.085938 6.515625 -8.671875 C 7.066406 -8.253906 7.34375 -7.65625 7.34375 -6.875 C 7.34375 -6.351562 7.238281 -5.929688 7.03125 -5.609375 C 6.832031 -5.296875 6.570312 -5.046875 6.25 -4.859375 C 5.9375 -4.679688 5.613281 -4.539062 5.28125 -4.4375 L 7.109375 -1.578125 C 7.472656 -1.023438 7.757812 -0.644531 7.96875 -0.4375 C 8.175781 -0.226562 8.382812 -0.125 8.59375 -0.125 L 8.625 -0.125 L 8.625 0 L 8.4375 0 C 8.03125 0 7.691406 -0.015625 7.421875 -0.046875 C 7.160156 -0.078125 6.941406 -0.128906 6.765625 -0.203125 C 6.597656 -0.285156 6.445312 -0.398438 6.3125 -0.546875 C 6.175781 -0.703125 6.03125 -0.898438 5.875 -1.140625 L 3.875 -4.34375 L 3.046875 -4.34375 L 3.046875 -1.0625 C 3.046875 -0.4375 3.40625 -0.125 4.125 -0.125 L 4.28125 -0.125 L 4.28125 0 Z M 3.046875 -4.46875 L 3.96875 -4.46875 C 4.6875 -4.46875 5.195312 -4.644531 5.5 -5 C 5.800781 -5.351562 5.953125 -5.945312 5.953125 -6.78125 C 5.953125 -7.632812 5.796875 -8.242188 5.484375 -8.609375 C 5.171875 -8.984375 4.65625 -9.171875 3.9375 -9.171875 L 3.046875 -9.171875 Z M 3.046875 -4.46875 "/></g></g></g><g fill="#1f2122" fill-opacity="1"><g transform="translate(254.128604, 192.113279)"><g><path d="M 4.71875 0.125 C 3.6875 0.125 2.878906 -0.0976562 2.296875 -0.546875 C 1.722656 -0.992188 1.4375 -1.75 1.4375 -2.8125 L 1.4375 -8.28125 C 1.4375 -8.875 1.078125 -9.171875 0.359375 -9.171875 L 0.203125 -9.171875 L 0.203125 -9.296875 L 3.984375 -9.296875 L 3.984375 -9.171875 L 3.8125 -9.171875 C 3.101562 -9.171875 2.75 -8.863281 2.75 -8.25 L 2.75 -2.734375 C 2.75 -2.035156 2.84375 -1.488281 3.03125 -1.09375 C 3.21875 -0.707031 3.472656 -0.4375 3.796875 -0.28125 C 4.128906 -0.132812 4.503906 -0.0625 4.921875 -0.0625 C 5.804688 -0.0625 6.503906 -0.289062 7.015625 -0.75 C 7.523438 -1.21875 7.78125 -1.863281 7.78125 -2.6875 L 7.78125 -8.28125 C 7.78125 -8.875 7.425781 -9.171875 6.71875 -9.171875 L 6.546875 -9.171875 L 6.546875 -9.296875 L 9.140625 -9.296875 L 9.140625 -9.171875 L 8.984375 -9.171875 C 8.265625 -9.171875 7.90625 -8.859375 7.90625 -8.234375 L 7.90625 -2.65625 C 7.90625 -1.789062 7.628906 -1.109375 7.078125 -0.609375 C 6.535156 -0.117188 5.75 0.125 4.71875 0.125 Z M 4.71875 0.125 "/></g></g></g></svg>